<svg xmlns="http://www.w3.org/2000/svg" viewBox="0 0 600 600">
  <rect x="0" y="0" width="600" height="600" fill="#ffffff"/>
  
  <text x="300" y="30" text-anchor="middle" font-size="20" font-weight="bold">ELECTRA Architecture</text>
  
  <!-- Input -->
  <rect x="150" y="50" width="300" height="40" fill="#ffcccc" stroke="#000000" stroke-width="2"/>
  <text x="300" y="75" text-anchor="middle" font-size="13">[CLS] Token1 Token2 ... [SEP] Token1' ... [SEP]</text>
  
  <!-- Embedding Layer -->
  <rect x="150" y="110" width="300" height="30" fill="#ccffcc" stroke="#000000" stroke-width="2"/>
  <text x="300" y="130" text-anchor="middle" font-size="14">Token + Position Embeddings</text>
  
  <!-- Generator -->
  <rect x="50" y="160" width="200" height="180" fill="#cce5ff" stroke="#000000" stroke-width="2"/>
  <text x="150" y="180" text-anchor="middle" font-size="16" font-weight="bold">Generator</text>
  
  <!-- Generator Transformer Layers -->
  <rect x="70" y="200" width="160" height="120" fill="#ffffcc" stroke="#000000" stroke-width="2"/>
  <text x="150" y="220" text-anchor="middle" font-size="12">Transformer Layers</text>
  <text x="150" y="240" text-anchor="middle" font-size="11">(Smaller than Discriminator)</text>
  
  <!-- Masked LM -->
  <rect x="70" y="330" width="160" height="30" fill="#ffccff" stroke="#000000" stroke-width="2"/>
  <text x="150" y="350" text-anchor="middle" font-size="12">Masked LM</text>
  
  <!-- Discriminator -->
  <rect x="350" y="160" width="200" height="320" fill="#ffd9cc" stroke="#000000" stroke-width="2"/>
  <text x="450" y="180" text-anchor="middle" font-size="16" font-weight="bold">Discriminator</text>
  
  <!-- Discriminator Transformer Layers -->
  <rect x="370" y="200" width="160" height="240" fill="#e6ccff" stroke="#000000" stroke-width="2"/>
  <text x="450" y="220" text-anchor="middle" font-size="12">Transformer Layers</text>
  
  <!-- RTD -->
  <rect x="370" y="445" width="160" height="30" fill="#ccccff" stroke="#000000" stroke-width="2"/>
  <text x="450" y="465" text-anchor="middle" font-size="12">Replaced Token Detection</text>
  
  <!-- Arrows -->
  <line x1="250" y1="250" x2="350" y2="250" stroke="#000000" stroke-width="2" marker-end="url(#arrowhead)"/>
  <text x="300" y="240" text-anchor="middle" font-size="12">Replaced Tokens</text>
  
  <!-- Output -->
  <rect x="150" y="500" width="300" height="40" fill="#ccccff" stroke="#000000" stroke-width="2"/>
  <text x="300" y="525" text-anchor="middle" font-size="14">Final Hidden State (Discriminator)</text>
  
  <!-- Arrowhead definition -->
  <defs>
    <marker id="arrowhead" markerWidth="10" markerHeight="7" refX="0" refY="3.5" orient="auto">
      <polygon points="0 0, 10 3.5, 0 7" />
    </marker>
  </defs>
</svg>